<svg width="38" height="38" viewBox="0 0 38 38" fill="none" xmlns="http://www.w3.org/2000/svg">
<path d="M26.1401 16.2857C26.1401 21.7991 21.6535 26.2857 16.1401 26.2857C10.6267 26.2857 6.14007 21.7991 6.14007 16.2857C6.14007 10.7723 10.6267 6.28571 16.1401 6.28571C21.6535 6.28571 26.1401 10.7723 26.1401 16.2857ZM37.5686 34.8571C37.5686 34.0982 37.2561 33.3616 36.7427 32.8482L29.0865 25.192C30.8945 22.5804 31.8544 19.4554 31.8544 16.2857C31.8544 7.60268 24.8231 0.571427 16.1401 0.571427C7.45703 0.571427 0.425781 7.60268 0.425781 16.2857C0.425781 24.9687 7.45703 32 16.1401 32C19.3097 32 22.4347 31.0402 25.0463 29.2321L32.7026 36.8661C33.216 37.4018 33.9526 37.7143 34.7115 37.7143C36.274 37.7143 37.5686 36.4196 37.5686 34.8571Z" fill="white"/>
</svg>
